<svg xmlns="http://www.w3.org/2000/svg" viewBox="0 0 24 24" fill="none" stroke="#C9A962" stroke-width="1.5" stroke-linecap="round" stroke-linejoin="round">
  <!-- 중앙 기둥 -->
  <line x1="12" y1="3" x2="12" y2="20"/>
  <!-- 받침 삼각형 -->
  <polygon points="8,22 16,22 12,19" fill="#C9A962"/>
  <!-- 수평 막대 -->
  <line x1="3" y1="8" x2="21" y2="8"/>
  <!-- 중앙 꼭지점 -->
  <circle cx="12" cy="3" r="1" fill="#C9A962"/>
  <!-- 왼쪽 접시 -->
  <line x1="2" y1="12" x2="8" y2="12"/>
  <path d="M2 12c0 1.5 1.3 3 3 3s3-1.5 3-3"/>
  <line x1="2" y1="8" x2="2" y2="12"/>
  <line x1="8" y1="8" x2="8" y2="12"/>
  <!-- 오른쪽 접시 -->
  <line x1="16" y1="12" x2="22" y2="12"/>
  <path d="M16 12c0 1.5 1.3 3 3 3s3-1.5 3-3"/>
  <line x1="16" y1="8" x2="16" y2="12"/>
  <line x1="22" y1="8" x2="22" y2="12"/>
</svg>
